<svg viewBox="0 0 800 600" xmlns="http://www.w3.org/2000/svg">
  <defs>
    <filter id="shadow">
      <feDropShadow dx="0" dy="8" stdDeviation="12" flood-opacity="0.4"/>
    </filter>
    
    <linearGradient id="versionGradient" x1="0%" y1="0%" x2="100%" y2="0%">
      <stop offset="0%" style="stop-color:#cba6f7;stop-opacity:1" />
      <stop offset="50%" style="stop-color:#f5c2e7;stop-opacity:1" />
      <stop offset="100%" style="stop-color:#89b4fa;stop-opacity:1" />
    </linearGradient>
  </defs>
  
  <!-- Version 1 - Original Block (Top Left) -->
  <g transform="translate(20, 40) rotate(-2)" filter="url(#shadow)">
    <rect width="340" height="160" rx="8" fill="#313244" stroke="#45475a" stroke-width="2"/>
    
    <circle cx="16" cy="16" r="5" fill="#f38ba8"/>
    <circle cx="34" cy="16" r="5" fill="#f9e2af"/>
    <circle cx="52" cy="16" r="5" fill="#a6e3a1"/>
    <text x="70" y="21" font-family="monospace" font-size="12" fill="#cdd6f4">notes.md</text>
    <text x="280" y="21" font-family="monospace" font-size="10" fill="#89dceb">v1.0</text>
    
    <line x1="12" y1="32" x2="328" y2="32" stroke="#45475a" stroke-width="1"/>
    
    <text x="16" y="55" font-family="monospace" font-size="11" fill="#6c7086">1</text>
    <text x="40" y="55" font-family="monospace" font-size="11" fill="#f38ba8">##</text>
    <text x="60" y="55" font-family="monospace" font-size="11" fill="#cdd6f4"> Project Ideas</text>
    
    <text x="16" y="75" font-family="monospace" font-size="11" fill="#6c7086">2</text>
    
    <text x="16" y="95" font-family="monospace" font-size="11" fill="#6c7086">3</text>
    <text x="40" y="95" font-family="monospace" font-size="11" fill="#cdd6f4">-</text>
    <text x="53" y="95" font-family="monospace" font-size="11" fill="#a6e3a1"> Build </text>
    <text x="100" y="95" font-family="monospace" font-size="11" fill="#cdd6f4">a note app</text>
    
    <text x="16" y="115" font-family="monospace" font-size="11" fill="#6c7086">4</text>
    <text x="40" y="115" font-family="monospace" font-size="11" fill="#cdd6f4">-</text>
    <text x="53" y="115" font-family="monospace" font-size="11" fill="#cba6f7"> Learn </text>
    <text x="105" y="115" font-family="monospace" font-size="11" fill="#cdd6f4">version control</text>
    
    <text x="16" y="135" font-family="monospace" font-size="11" fill="#6c7086">5</text>
    <text x="40" y="135" font-family="monospace" font-size="11" fill="#cdd6f4">-</text>
    <text x="53" y="135" font-family="monospace" font-size="11" fill="#89dceb"> Write </text>
    <text x="103" y="135" font-family="monospace" font-size="11" fill="#cdd6f4">documentation</text>
  </g>
  
  <!-- Version 2 - Modified Block (Middle) -->
  <g transform="translate(200, 170) rotate(1)" filter="url(#shadow)">
    <rect width="360" height="180" rx="8" fill="#313244" stroke="#89b4fa" stroke-width="2"/>
    
    <circle cx="16" cy="16" r="5" fill="#f38ba8"/>
    <circle cx="34" cy="16" r="5" fill="#f9e2af"/>
    <circle cx="52" cy="16" r="5" fill="#a6e3a1"/>
    <text x="70" y="21" font-family="monospace" font-size="12" fill="#cdd6f4">notes.md</text>
    <text x="280" y="21" font-family="monospace" font-size="10" fill="#89dceb">v2.0</text>
    
    <line x1="12" y1="32" x2="348" y2="32" stroke="#45475a" stroke-width="1"/>
    
    <text x="16" y="55" font-family="monospace" font-size="11" fill="#6c7086">1</text>
    <text x="40" y="55" font-family="monospace" font-size="11" fill="#f38ba8">##</text>
    <text x="60" y="55" font-family="monospace" font-size="11" fill="#cdd6f4"> Project Ideas</text>
    
    <text x="16" y="75" font-family="monospace" font-size="11" fill="#6c7086">2</text>
    
    <text x="16" y="95" font-family="monospace" font-size="11" fill="#6c7086">3</text>
    <text x="40" y="95" font-family="monospace" font-size="11" fill="#cdd6f4">-</text>
    <text x="53" y="95" font-family="monospace" font-size="11" fill="#a6e3a1"> Build </text>
    <text x="100" y="95" font-family="monospace" font-size="11" fill="#cdd6f4">a note app</text>
    
    <!-- Modified line with highlight -->
    <rect x="38" y="103" width="310" height="18" fill="#89b4fa" fill-opacity="0.15" rx="3"/>
    <text x="16" y="115" font-family="monospace" font-size="11" fill="#6c7086">4</text>
    <text x="40" y="115" font-family="monospace" font-size="11" fill="#cdd6f4">-</text>
    <text x="53" y="115" font-family="monospace" font-size="11" fill="#cba6f7"> Track </text>
    <text x="103" y="115" font-family="monospace" font-size="11" fill="#89b4fa" font-weight="bold">block-level changes</text>
    
    <text x="16" y="135" font-family="monospace" font-size="11" fill="#6c7086">5</text>
    <text x="40" y="135" font-family="monospace" font-size="11" fill="#cdd6f4">-</text>
    <text x="53" y="135" font-family="monospace" font-size="11" fill="#89dceb"> Write </text>
    <text x="103" y="135" font-family="monospace" font-size="11" fill="#cdd6f4">documentation</text>
    
    <text x="16" y="155" font-family="monospace" font-size="11" fill="#6c7086">6</text>
    <text x="40" y="155" font-family="monospace" font-size="11" fill="#cdd6f4">-</text>
    <text x="53" y="155" font-family="monospace" font-size="11" fill="#a6e3a1"> Collaborate </text>
    <text x="140" y="155" font-family="monospace" font-size="11" fill="#cdd6f4">with team</text>
  </g>
  
  <!-- Version 3 - Another Change (Bottom Left) -->
  <g transform="translate(50, 380) rotate(-1)" filter="url(#shadow)">
    <rect width="340" height="160" rx="8" fill="#313244" stroke="#45475a" stroke-width="2"/>
    
    <circle cx="16" cy="16" r="5" fill="#f38ba8"/>
    <circle cx="34" cy="16" r="5" fill="#f9e2af"/>
    <circle cx="52" cy="16" r="5" fill="#a6e3a1"/>
    <text x="70" y="21" font-family="monospace" font-size="12" fill="#cdd6f4">notes.md</text>
    <text x="280" y="21" font-family="monospace" font-size="10" fill="#89dceb">v3.0</text>
    
    <line x1="12" y1="32" x2="328" y2="32" stroke="#45475a" stroke-width="1"/>
    
    <!-- Modified heading with highlight -->
    <rect x="38" y="43" width="280" height="18" fill="#f5c2e7" fill-opacity="0.15" rx="3"/>
    <text x="16" y="55" font-family="monospace" font-size="11" fill="#6c7086">1</text>
    <text x="40" y="55" font-family="monospace" font-size="11" fill="#f38ba8">##</text>
    <text x="60" y="55" font-family="monospace" font-size="11" fill="#f5c2e7" font-weight="bold"> Development Roadmap</text>
    
    <text x="16" y="75" font-family="monospace" font-size="11" fill="#6c7086">2</text>
    
    <text x="16" y="95" font-family="monospace" font-size="11" fill="#6c7086">3</text>
    <text x="40" y="95" font-family="monospace" font-size="11" fill="#cdd6f4">-</text>
    <text x="53" y="95" font-family="monospace" font-size="11" fill="#a6e3a1"> Build </text>
    <text x="100" y="95" font-family="monospace" font-size="11" fill="#cdd6f4">a note app</text>
    
    <text x="16" y="115" font-family="monospace" font-size="11" fill="#6c7086">4</text>
    <text x="40" y="115" font-family="monospace" font-size="11" fill="#cdd6f4">-</text>
    <text x="53" y="115" font-family="monospace" font-size="11" fill="#cba6f7"> Track </text>
    <text x="103" y="115" font-family="monospace" font-size="11" fill="#cdd6f4">block-level changes</text>
    
    <text x="16" y="135" font-family="monospace" font-size="11" fill="#6c7086">5</text>
    <text x="40" y="135" font-family="monospace" font-size="11" fill="#cdd6f4">-</text>
    <text x="53" y="135" font-family="monospace" font-size="11" fill="#89dceb"> Write </text>
    <text x="103" y="135" font-family="monospace" font-size="11" fill="#cdd6f4">documentation</text>
  </g>
  
  <!-- Git-style diff indicator -->
  <!-- <g transform="translate(430, 420)"> -->
  <!--   <circle cx="0" cy="0" r="30" fill="#313244" stroke="#45475a" stroke-width="2" filter="url(#shadow)"/> -->
  <!--   <path d="M -8,-8 L -8,8 L 8,0 Z" fill="#a6e3a1" transform="rotate(90)"/> -->
  <!--   <text x="0" y="55" font-family="monospace" font-size="12" fill="#89dceb" text-anchor="middle">v1 → v3</text> -->
  <!-- </g> -->
  
  <!-- Branching visualization lines -->
  <g opacity="0.3">
    <path d="M 180 120 Q 280 180 360 250" stroke="url(#versionGradient)" stroke-width="2" fill="none" stroke-dasharray="5,5"/>
    <path d="M 360 330 Q 320 380 220 460" stroke="url(#versionGradient)" stroke-width="2" fill="none" stroke-dasharray="5,5"/>
  </g>
  
  <!-- Version markers -->
  <circle cx="180" cy="120" r="8" fill="#89b4fa" stroke="#313244" stroke-width="2"/>
  <circle cx="360" cy="250" r="8" fill="#f5c2e7" stroke="#313244" stroke-width="2"/>
  <circle cx="220" cy="460" r="8" fill="#cba6f7" stroke="#313244" stroke-width="2"/>
</svg>
